<svg id="Capa_1" enable-background="new 0 0 512 512" height="512" viewBox="0 0 512 512" width="512" xmlns="http://www.w3.org/2000/svg" xmlns:xlink="http://www.w3.org/1999/xlink"><linearGradient id="SVGID_1_" gradientUnits="userSpaceOnUse" x1="74.981" x2="437.019" y1="437.019" y2="74.981"><stop offset="0" stop-color="#0072ff"/><stop offset="1" stop-color="#00deb0"/></linearGradient><radialGradient id="SVGID_2_" cx="256" cy="256" gradientUnits="userSpaceOnUse" r="256"><stop offset="0" stop-color="#0072ff"/><stop offset=".1662" stop-color="#007df7" stop-opacity=".834"/><stop offset=".4545" stop-color="#0099e3" stop-opacity=".546"/><stop offset=".8282" stop-color="#00c7c1" stop-opacity=".172"/><stop offset="1" stop-color="#00deb0" stop-opacity="0"/></radialGradient><linearGradient id="SVGID_3_" gradientUnits="userSpaceOnUse" x1="24.244" x2="481.325" y1="537.768" y2="80.688"><stop offset="0" stop-color="#00babd"/><stop offset=".1016" stop-color="#0dbec0"/><stop offset=".2902" stop-color="#30c7c9"/><stop offset=".5449" stop-color="#68d6d8"/><stop offset=".8528" stop-color="#b4eaec"/><stop offset="1" stop-color="#dbf5f6"/></linearGradient><radialGradient id="SVGID_4_" cx="256" cy="307.328" gradientUnits="userSpaceOnUse" r="253.582"><stop offset="0" stop-color="#00babd"/><stop offset=".1708" stop-color="#1ac1c4" stop-opacity=".829"/><stop offset=".556" stop-color="#51d0d2" stop-opacity=".444"/><stop offset=".844" stop-color="#73d9db" stop-opacity=".156"/><stop offset="1" stop-color="#80ddde" stop-opacity="0"/></radialGradient><radialGradient id="SVGID_5_" cx="256" cy="256" gradientUnits="userSpaceOnUse" r="186.462"><stop offset="0" stop-color="#00babd"/><stop offset=".1502" stop-color="#3acacc" stop-opacity=".85"/><stop offset=".3204" stop-color="#75dadb" stop-opacity=".68"/><stop offset=".4849" stop-color="#a7e7e8" stop-opacity=".515"/><stop offset=".6392" stop-color="#cdf1f2" stop-opacity=".361"/><stop offset=".781" stop-color="#e8f9f9" stop-opacity=".219"/><stop offset=".9056" stop-color="#f9fdfd" stop-opacity=".094"/><stop offset="1" stop-color="#fff" stop-opacity="0"/></radialGradient><linearGradient id="SVGID_6_" gradientUnits="userSpaceOnUse" x1="-22.06" x2="442.804" y1="534.06" y2="69.196"><stop offset="0" stop-color="#00babd"/><stop offset=".4847" stop-color="#82dddf"/><stop offset=".8402" stop-color="#dcf6f6"/><stop offset="1" stop-color="#fff"/></linearGradient><radialGradient id="SVGID_7_" cx="256" cy="256" gradientUnits="userSpaceOnUse" r="253.794"><stop offset="0" stop-color="#00babd"/><stop offset=".3284" stop-color="#41cbce" stop-opacity=".672"/><stop offset=".6417" stop-color="#78dadc" stop-opacity=".358"/><stop offset=".8742" stop-color="#9ae4e5" stop-opacity=".126"/><stop offset="1" stop-color="#a7e7e8" stop-opacity="0"/></radialGradient><linearGradient id="SVGID_8_" gradientUnits="userSpaceOnUse" x1="-71.463" x2="389.281" y1="533.45" y2="72.706"><stop offset="0" stop-color="#80ddde"/><stop offset="1" stop-color="#fff"/></linearGradient><linearGradient id="SVGID_9_" gradientUnits="userSpaceOnUse" x1="-30.841" x2="442.531" y1="494.743" y2="21.371"><stop offset="0" stop-color="#00babd"/><stop offset=".1502" stop-color="#3acacc"/><stop offset=".3204" stop-color="#75dadb"/><stop offset=".4849" stop-color="#a7e7e8"/><stop offset=".6392" stop-color="#cdf1f2"/><stop offset=".781" stop-color="#e8f9f9"/><stop offset=".9056" stop-color="#f9fdfd"/><stop offset="1" stop-color="#fff"/></linearGradient><g><circle cx="256" cy="256" fill="url(#SVGID_1_)" r="256"/><circle cx="256" cy="256" fill="url(#SVGID_2_)" r="256"/><path d="m455.703 294.335c-62.996-48.136-127.157-98.732-190.264-148.663-5.544-4.388-13.333-4.388-18.877 0-63.106 49.931-127.268 100.527-190.264 148.663-7.784 5.944-7.645 17.491.259 23.623 63.981 49.637 128.111 101.018 190.17 151.02 5.453 4.395 13.096 4.395 18.549 0 62.059-50.003 126.189-101.384 190.17-151.02 7.902-6.132 8.039-17.678.257-23.623z" fill="url(#SVGID_3_)"/><path d="m455.703 294.335c-62.996-48.136-127.157-98.732-190.264-148.663-5.544-4.388-13.333-4.388-18.877 0-63.106 49.931-127.268 100.527-190.264 148.663-7.784 5.944-7.645 17.491.259 23.623 63.981 49.637 128.111 101.018 190.17 151.02 5.453 4.395 13.096 4.395 18.549 0 62.059-50.003 126.189-101.384 190.17-151.02 7.902-6.132 8.039-17.678.257-23.623z" fill="url(#SVGID_4_)"/><path d="m455.848 244.189c-63.576-48.886-127.809-99.875-190.478-149.842-5.507-4.392-13.232-4.392-18.739 0-62.67 49.967-126.903 100.955-190.478 149.842-7.855 6.038-7.855 17.585 0 23.623 63.576 48.886 127.809 99.875 190.478 149.842 5.507 4.392 13.232 4.392 18.739 0 62.67-49.967 126.903-100.955 190.478-149.842 7.854-6.039 7.854-17.585 0-23.623z" fill="url(#SVGID_5_)"/><path d="m455.848 244.189c-63.576-48.886-127.809-99.875-190.478-149.842-5.507-4.392-13.232-4.392-18.739 0-62.67 49.967-126.903 100.955-190.478 149.842-7.855 6.038-7.855 17.585 0 23.623 63.576 48.886 127.809 99.875 190.478 149.842 5.507 4.392 13.232 4.392 18.739 0 62.67-49.967 126.903-100.955 190.478-149.842 7.854-6.039 7.854-17.585 0-23.623z" fill="url(#SVGID_6_)"/><path d="m455.848 244.189c-63.576-48.886-127.809-99.875-190.478-149.842-5.507-4.392-13.232-4.392-18.739 0-62.67 49.967-126.903 100.955-190.478 149.842-7.855 6.038-7.855 17.585 0 23.623 63.576 48.886 127.809 99.875 190.478 149.842 5.507 4.392 13.232 4.392 18.739 0 62.67-49.967 126.903-100.955 190.478-149.842 7.854-6.039 7.854-17.585 0-23.623z" fill="url(#SVGID_7_)"/><path d="m455.444 194.042c-63.981-49.637-128.111-101.018-190.17-151.02-5.453-4.395-13.096-4.395-18.549 0-62.059 50.003-126.189 101.384-190.17 151.02-7.904 6.132-8.042 17.679-.259 23.623 62.996 48.136 127.158 98.732 190.264 148.663 5.545 4.388 13.333 4.388 18.877 0 63.106-49.931 127.268-100.527 190.264-148.663 7.785-5.945 7.647-17.491-.257-23.623z" fill="url(#SVGID_8_)"/><path d="m461.196 203.442c-.572 2.293-2.412 4.46-5.569 6.017-48.334 22.67-97.018 46.332-145.663 70.114-34.08 16.686-73.846 16.686-107.927 0-48.646-23.781-97.329-47.444-145.663-70.114-3.157-1.557-4.997-3.724-5.569-6.017-.941 5.179.868 10.689 5.493 14.223 62.996 48.136 127.158 98.732 190.264 148.663 5.545 4.388 13.332 4.388 18.877 0 63.106-49.931 127.268-100.527 190.264-148.663 4.624-3.534 6.432-9.045 5.493-14.223z" fill="url(#SVGID_9_)"/></g></svg>