<svg height="512" viewBox="0 0 64 64" width="512" xmlns="http://www.w3.org/2000/svg"><g id="Concept"><path d="m3 19h48a0 0 0 0 1 0 0v40a2 2 0 0 1 -2 2h-44a2 2 0 0 1 -2-2v-40a0 0 0 0 1 0 0z" fill="#ffcd00"/><path d="m47 19v22a16 16 0 0 1 -16 16h-28v2a2 2 0 0 0 2 2h44a2 2 0 0 0 2-2v-40z" fill="#ebbf00"/><path d="m49 11h-44a2 2 0 0 0 -2 2v6h48v-6a2 2 0 0 0 -2-2z" fill="#006df0"/><path d="m49.859 9.063a9.869 9.869 0 0 0 -4.834 1.937 9.979 9.979 0 0 0 1.8 17.085 2 2 0 0 1 1.175 1.815v1.1h6v-1.1a2 2 0 0 1 1.179-1.816 10 10 0 0 0 -5.32-19.021z" fill="#ff9811"/><path d="m50.023 9.054a10 10 0 0 1 3.156 19.03 2 2 0 0 0 -1.179 1.816v1.1h2v-1.1a2 2 0 0 1 1.179-1.816 10 10 0 0 0 -5.156-19.03z" fill="#ee8700"/><path d="m48 31h-1a2 2 0 0 0 0 4h8a2 2 0 0 0 0-4z" fill="#006df0"/><path d="m51 49v-14h-3v16z" fill="#d80027"/><path d="m48 51 3 4 3-4-3-2z" fill="#58595b"/><path d="m51 49 3 2v-16h-3z" fill="#ff6243"/><path d="m9 25h28v6h-28z" fill="#5eac24"/><path d="m9 35h12v8h-12z" fill="#ed1c24"/><path d="m9 47h12v8h-12z" fill="#ed1c24"/><path d="m7 16h1a1 1 0 0 0 0-2h-1a1 1 0 0 0 0 2z" fill="#f1f2f2"/><path d="m12 16h1a1 1 0 0 0 0-2h-1a1 1 0 0 0 0 2z" fill="#f1f2f2"/><path d="m17 16h1a1 1 0 0 0 0-2h-1a1 1 0 0 0 0 2z" fill="#f1f2f2"/><g fill="#ff5023"><path d="m51 6a1 1 0 0 0 1-1v-2a1 1 0 0 0 -2 0v2a1 1 0 0 0 1 1z"/><path d="m43.134 7.375a1 1 0 1 0 1.732-1l-1-1.731a1 1 0 1 0 -1.732 1z"/><path d="m57.5 7.742a1 1 0 0 0 1.366-.367l1-1.731a1 1 0 1 0 -1.732-1l-1 1.731a1 1 0 0 0 .366 1.367z"/><path d="m27 34h-2a1 1 0 0 0 0 2h2a1 1 0 0 0 0-2z"/><path d="m41 34h-10a1 1 0 0 0 0 2h10a1 1 0 0 0 0-2z"/><path d="m27 38h-2a1 1 0 0 0 0 2h2a1 1 0 0 0 0-2z"/><path d="m41 38h-10a1 1 0 0 0 0 2h10a1 1 0 0 0 0-2z"/><path d="m27 42h-2a1 1 0 0 0 0 2h2a1 1 0 0 0 0-2z"/><path d="m41 42h-10a1 1 0 0 0 0 2h10a1 1 0 0 0 0-2z"/><path d="m27 46h-2a1 1 0 0 0 0 2h2a1 1 0 0 0 0-2z"/><path d="m41 46h-10a1 1 0 0 0 0 2h10a1 1 0 0 0 0-2z"/><path d="m27 50h-2a1 1 0 0 0 0 2h2a1 1 0 0 0 0-2z"/><path d="m41 50h-10a1 1 0 0 0 0 2h10a1 1 0 0 0 0-2z"/><path d="m27 54h-2a1 1 0 0 0 0 2h2a1 1 0 0 0 0-2z"/><path d="m41 54h-10a1 1 0 0 0 0 2h10a1 1 0 0 0 0-2z"/></g><path d="m53 18a1 1 0 0 1 .5 1.87 1 1 0 0 0 .5 1.86 1.009 1.009 0 0 0 .5-.13 3 3 0 0 0 -1.5-5.6 2.974 2.974 0 0 0 -2 .78 2.974 2.974 0 0 0 -2-.78 3 3 0 0 0 -1.5 5.6 1.009 1.009 0 0 0 .5.13 1 1 0 0 0 .5-1.86 1 1 0 1 1 1.5-.87v12h2v-12a1 1 0 0 1 1-1z" fill="#cc7400"/></g></svg>