<svg height="512" viewBox="0 0 64 64" width="512" xmlns="http://www.w3.org/2000/svg"><g id="Marketing"><g fill="#005ece"><path d="m56.908 35.316-5.908 19.684h10v-14a6 6 0 0 0 -4.092-5.684z"/><path d="m11.56 50.21-4.468-14.894a6 6 0 0 0 -4.092 5.684v14h10l-1.438-4.792z"/><path d="m47.56 50.21-4.47-14.892a6 6 0 0 0 -4.09 5.682v.349a6 6 0 0 1 4 5.651v8h6l-1.438-4.792z"/><path d="m25 41.349v-.349a6 6 0 0 0 -4.092-5.684l-5.908 19.684h6v-8a6 6 0 0 1 4-5.651z"/></g><circle cx="14" cy="28" fill="#ff9811" r="5"/><circle cx="50" cy="28" fill="#ff9811" r="5"/><path d="m29.56 56.21-4.47-14.893-.09.032a6 6 0 0 0 -4 5.651v14h10l-1.438-4.792z" fill="#006df0"/><path d="m39 41.349-.092-.034-5.908 19.685h10v-14a6 6 0 0 0 -4-5.651z" fill="#006df0"/><circle cx="32" cy="34" fill="#ff9811" r="5"/><path d="m22 10h-4a2 2 0 0 0 -2 2v2a2 2 0 0 0 2 2h4z" fill="#d80027"/><path d="m30 21v-16l-8 5v6z" fill="#ed1c24"/><path d="m19 35h-10a5.991 5.991 0 0 0 -1.908.315l4.062 13.533 1.846 6.152h2l1.712-5.7 4.2-13.982a5.991 5.991 0 0 0 -1.912-.318z" fill="#9bc9ff"/><path d="m15 39h-2l-1.846 9.848 1.846 6.152h2l1.712-5.703-.002-.007z" fill="#d80027"/><path d="m15 39 2-4h-6l2 4z" fill="#c20023"/><path d="m15 39h-1v16h1l1.712-5.703-.002-.007z" fill="#c20023"/><path d="m15 39 2-4h-3v4z" fill="#ad001f"/><path d="m37 41h-10a5.991 5.991 0 0 0 -1.908.315l4.062 13.533 1.846 6.152h2l1.712-5.7 4.2-13.982a5.991 5.991 0 0 0 -1.912-.318z" fill="#d1e7f8"/><path d="m33 45h-2l-1.846 9.848 1.846 6.152h2l1.712-5.703-.002-.007z" fill="#d80027"/><path d="m33 45 2-4h-6l2 4z" fill="#c20023"/><path d="m33 45h-1v16h1l1.712-5.703-.002-.007z" fill="#c20023"/><path d="m33 45 2-4h-3v4z" fill="#ad001f"/><path d="m55 35h-10a5.991 5.991 0 0 0 -1.908.315l4.062 13.533 1.846 6.152h2l1.712-5.7 4.2-13.982a5.991 5.991 0 0 0 -1.912-.318z" fill="#9bc9ff"/><path d="m51 39h-2l-1.846 9.848 1.846 6.152h2l1.712-5.703-.002-.007z" fill="#d80027"/><path d="m51 39 2-4h-6l2 4z" fill="#c20023"/><path d="m51 39h-1v16h1l1.712-5.703-.002-.007z" fill="#c20023"/><path d="m51 39 2-4h-3v4z" fill="#ad001f"/><path d="m33.293 17.707a1 1 0 0 0 1.414 0 6.665 6.665 0 0 0 0-9.414 1 1 0 0 0 -1.414 1.414 4.664 4.664 0 0 1 0 6.586 1 1 0 0 0 0 1.414z" fill="#a7a9ac"/><path d="m38.949 21.95a1 1 0 1 0 1.414 1.414 14.673 14.673 0 0 0 0-20.728 1 1 0 0 0 -1.414 1.414 12.672 12.672 0 0 1 0 17.9z" fill="#a7a9ac"/><path d="m36.121 19.122a1 1 0 1 0 1.414 1.414 10.67 10.67 0 0 0 0-15.072 1 1 0 0 0 -1.414 1.414 8.669 8.669 0 0 1 0 12.244z" fill="#a7a9ac"/></g></svg>