<svg viewBox="0 0 64 64" xmlns="http://www.w3.org/2000/svg"><path d="m34 34h-18a8 8 0 0 0 -8 8v10h34v-10a8 8 0 0 0 -8-8z" fill="#c2c2c2"/><path d="m42 52.5h-34a.5.5 0 0 1 -.5-.5v-10a8.51 8.51 0 0 1 8.5-8.5h18a8.51 8.51 0 0 1 8.5 8.5v10a.5.5 0 0 1 -.5.5zm-33.5-1h33v-9.5a7.508 7.508 0 0 0 -7.5-7.5h-18a7.508 7.508 0 0 0 -7.5 7.5z" fill="#212a41"/><path d="m10 50.5a.5.5 0 0 1 -.5-.5v-8a6.508 6.508 0 0 1 6.5-6.5.5.5 0 0 1 0 1 5.506 5.506 0 0 0 -5.5 5.5v8a.5.5 0 0 1 -.5.5z" fill="#e0e0e0"/><path d="m16 42v10h34v-10a8 8 0 0 0 -8-8h-18a8 8 0 0 0 -8 8z" fill="#e0e0e0"/><path d="m50 52.5h-34a.5.5 0 0 1 -.5-.5v-10a8.51 8.51 0 0 1 8.5-8.5h18a8.51 8.51 0 0 1 8.5 8.5v10a.5.5 0 0 1 -.5.5zm-33.5-1h33v-9.5a7.508 7.508 0 0 0 -7.5-7.5h-18a7.508 7.508 0 0 0 -7.5 7.5z" fill="#212a41"/><path d="m48 49.5a.5.5 0 0 1 -.5-.5v-7a5.506 5.506 0 0 0 -5.5-5.5.5.5 0 0 1 0-1 6.508 6.508 0 0 1 6.5 6.5v7a.5.5 0 0 1 -.5.5z" fill="#c2c2c2"/><circle cx="47" cy="42" fill="#db8e11" r="6"/><path d="m47 48.5a6.5 6.5 0 1 1 6.5-6.5 6.508 6.508 0 0 1 -6.5 6.5zm0-12a5.5 5.5 0 1 0 5.5 5.5 5.506 5.506 0 0 0 -5.5-5.5z" fill="#212a41"/><circle cx="39" cy="17" fill="#e0c8a4" r="3"/><path d="m39 20.5a3.5 3.5 0 1 1 3.5-3.5 3.5 3.5 0 0 1 -3.5 3.5zm0-6a2.5 2.5 0 1 0 2.5 2.5 2.5 2.5 0 0 0 -2.5-2.5z" fill="#212a41"/><path d="m33 6h-8a6 6 0 0 0 -6 6v2a3 3 0 0 0 0 6v2a6 6 0 0 0 6 6h8a6 6 0 0 0 6-6v-10a6 6 0 0 0 -6-6z" fill="#e0c8a4"/><path d="m33 28.5h-8a6.508 6.508 0 0 1 -6.5-6.5v-1.536a3.5 3.5 0 0 1 0-6.928v-1.536a6.508 6.508 0 0 1 6.5-6.5h8a6.508 6.508 0 0 1 6.5 6.5v10a6.508 6.508 0 0 1 -6.5 6.5zm-8-22a5.506 5.506 0 0 0 -5.5 5.5v2a.5.5 0 0 1 -.5.5 2.5 2.5 0 0 0 0 5 .5.5 0 0 1 .5.5v2a5.506 5.506 0 0 0 5.5 5.5h8a5.506 5.506 0 0 0 5.5-5.5v-10a5.506 5.506 0 0 0 -5.5-5.5z" fill="#212a41"/><path d="m25 26.5a4.505 4.505 0 0 1 -4.5-4.5.5.5 0 0 1 1 0 3.5 3.5 0 0 0 3.5 3.5.5.5 0 0 1 0 1z" fill="#fee6c2"/><path d="m33 26.5a.5.5 0 0 1 0-1 3.5 3.5 0 0 0 3.5-3.5v-9a.5.5 0 0 1 1 0v9a4.505 4.505 0 0 1 -4.5 4.5z" fill="#c2aa86"/><path d="m25 28h8v6h-8z" fill="#e8d2a8"/><path d="m33 34.5h-8a.5.5 0 0 1 -.5-.5v-6a.5.5 0 0 1 .5-.5h8a.5.5 0 0 1 .5.5v6a.5.5 0 0 1 -.5.5zm-7.5-1h7v-5h-7z" fill="#212a41"/><path d="m18 50.5a.5.5 0 0 1 -.5-.5v-8a6.508 6.508 0 0 1 6.5-6.5.5.5 0 0 1 0 1 5.506 5.506 0 0 0 -5.5 5.5v8a.5.5 0 0 1 -.5.5z" fill="#fefefe"/><path d="m23 4h17a0 0 0 0 1 0 0v3a4 4 0 0 1 -4 4h-17a0 0 0 0 1 0 0v-3a4 4 0 0 1 4-4z" fill="#6c696f"/><path d="m36 11.5h-17a.5.5 0 0 1 -.5-.5v-3a4.505 4.505 0 0 1 4.5-4.5h17a.5.5 0 0 1 .5.5v3a4.505 4.505 0 0 1 -4.5 4.5zm-16.5-1h16.5a3.5 3.5 0 0 0 3.5-3.5v-2.5h-16.5a3.5 3.5 0 0 0 -3.5 3.5z" fill="#212a41"/><path d="m36 9.5a.5.5 0 0 1 0-1 1.5 1.5 0 0 0 1.5-1.5v-1a.5.5 0 0 1 1 0v1a2.5 2.5 0 0 1 -2.5 2.5z" fill="#4e4b51"/><path d="m19 6h3a0 0 0 0 1 0 0v4a4 4 0 0 1 -4 4h-1a0 0 0 0 1 0 0v-6a2 2 0 0 1 2-2z" fill="#4e4b51"/><path d="m18 14.5h-1a.5.5 0 0 1 -.5-.5v-6a2.5 2.5 0 0 1 2.5-2.5h3a.5.5 0 0 1 .5.5v4a4.505 4.505 0 0 1 -4.5 4.5zm-.5-1h.5a3.5 3.5 0 0 0 3.5-3.5v-3.5h-2.5a1.5 1.5 0 0 0 -1.5 1.5z" fill="#212a41"/><path d="m19 12.231a.5.5 0 0 1 -.5-.5v-3.731a.5.5 0 0 1 1 0v3.731a.5.5 0 0 1 -.5.5z" fill="#6c696f"/><path d="m19 20.5a3.5 3.5 0 0 1 -2.475-5.975 3.585 3.585 0 0 1 4.95 0 .5.5 0 0 1 -.707.707 2.562 2.562 0 0 0 -3.536 0 2.5 2.5 0 0 0 0 3.536 2.562 2.562 0 0 0 3.536 0 .5.5 0 0 1 .707.707 3.477 3.477 0 0 1 -2.475 1.025z" fill="#212a41"/><path d="m39 34h-4l2-3z" fill="#e0e0e0"/><path d="m39 34.5h-4a.5.5 0 0 1 -.416-.777l2-3a.518.518 0 0 1 .832 0l2 3a.5.5 0 0 1 -.416.777zm-3.066-1h2.132l-1.066-1.6z" fill="#212a41"/><path d="m35 34h-2v-3h4z" fill="#c2c2c2"/><path d="m35 34.5h-2a.5.5 0 0 1 -.5-.5v-3a.5.5 0 0 1 .5-.5h4a.5.5 0 0 1 .416.777l-2 3a.5.5 0 0 1 -.416.223zm-1.5-1h1.232l1.334-2h-2.566z" fill="#212a41"/><path d="m31 34h-4l2-3z" fill="#e0e0e0"/><path d="m31 34.5h-4a.5.5 0 0 1 -.416-.777l2-3a.518.518 0 0 1 .832 0l2 3a.5.5 0 0 1 -.416.777zm-3.066-1h2.132l-1.066-1.6z" fill="#212a41"/><path d="m27 34h-7l2-3h7z" fill="#c2c2c2"/><path d="m27 34.5h-7a.5.5 0 0 1 -.416-.777l2-3a.5.5 0 0 1 .416-.223h7a.5.5 0 0 1 .416.777l-2 3a.5.5 0 0 1 -.416.223zm-6.066-1h5.8l1.334-2h-5.8z" fill="#212a41"/><path d="m36 52h-6l1-12h4z" fill="#0079a8"/><path d="m36 52.5h-6a.5.5 0 0 1 -.5-.542l1-12a.5.5 0 0 1 .5-.458h4a.5.5 0 0 1 .5.458l1 12a.5.5 0 0 1 -.5.542zm-5.457-1h4.914l-.917-11h-3.08z" fill="#212a41"/><path d="m35 34h-4l-2 3 2 3h4l2-3z" fill="#0079a8"/><path d="m35 40.5h-4a.5.5 0 0 1 -.416-.223l-2-3a.5.5 0 0 1 0-.554l2-3a.5.5 0 0 1 .416-.223h4a.5.5 0 0 1 .416.223l2 3a.5.5 0 0 1 0 .554l-2 3a.5.5 0 0 1 -.416.223zm-3.732-1h3.464l1.668-2.5-1.667-2.5h-3.465l-1.668 2.5z" fill="#212a41"/><rect fill="#f9ac2f" height="4" rx="1" width="14" x="41.5" y="56"/><rect fill="#f9ac2f" height="4" rx="1" width="14" x="41.5" y="52"/><rect fill="#f9ac2f" height="4" rx="1" width="14" x="41.5" y="48"/><circle cx="50" cy="42" fill="#f9ac2f" r="6"/><path d="m50 48.5a6.5 6.5 0 1 1 6.5-6.5 6.508 6.508 0 0 1 -6.5 6.5zm0-12a5.5 5.5 0 1 0 5.5 5.5 5.506 5.506 0 0 0 -5.5-5.5z" fill="#212a41"/><path d="m43.5 58.5a.5.5 0 0 1 -.5-.5v-8a.5.5 0 0 1 1 0v8a.5.5 0 0 1 -.5.5z" fill="#ffca4d"/><path d="m53.5 58.5a.5.5 0 0 1 -.5-.5v-8a.5.5 0 0 1 1 0v8a.5.5 0 0 1 -.5.5z" fill="#db8e11"/><path d="m54.5 60.5h-12a1.5 1.5 0 0 1 -1.5-1.5v-2a1.5 1.5 0 0 1 1.5-1.5h12a1.5 1.5 0 0 1 1.5 1.5v2a1.5 1.5 0 0 1 -1.5 1.5zm-12-4a.5.5 0 0 0 -.5.5v2a.5.5 0 0 0 .5.5h12a.5.5 0 0 0 .5-.5v-2a.5.5 0 0 0 -.5-.5z" fill="#212a41"/><path d="m54.5 56.5h-12a1.5 1.5 0 0 1 -1.5-1.5v-2a1.5 1.5 0 0 1 1.5-1.5h12a1.5 1.5 0 0 1 1.5 1.5v2a1.5 1.5 0 0 1 -1.5 1.5zm-12-4a.5.5 0 0 0 -.5.5v2a.5.5 0 0 0 .5.5h12a.5.5 0 0 0 .5-.5v-2a.5.5 0 0 0 -.5-.5z" fill="#212a41"/><path d="m54.5 52.5h-12a1.5 1.5 0 0 1 -1.5-1.5v-2a1.5 1.5 0 0 1 1.5-1.5h12a1.5 1.5 0 0 1 1.5 1.5v2a1.5 1.5 0 0 1 -1.5 1.5zm-12-4a.5.5 0 0 0 -.5.5v2a.5.5 0 0 0 .5.5h12a.5.5 0 0 0 .5-.5v-2a.5.5 0 0 0 -.5-.5z" fill="#212a41"/><path d="m8 52h20a0 0 0 0 1 0 0v8a0 0 0 0 1 0 0h-18a2 2 0 0 1 -2-2v-6a0 0 0 0 1 0 0z" fill="#c2aa86"/><g fill="#212a41"><path d="m28 60.5h-18a2.5 2.5 0 0 1 -2.5-2.5v-6a.5.5 0 0 1 .5-.5h20a.5.5 0 0 1 .5.5v8a.5.5 0 0 1 -.5.5zm-19.5-8v5.5a1.5 1.5 0 0 0 1.5 1.5h17.5v-7z"/><path d="m50.5 44.5h-2a.5.5 0 0 1 0-1h2a.5.5 0 0 0 0-1h-1a1.5 1.5 0 0 1 0-3h2a.5.5 0 0 1 0 1h-2a.5.5 0 0 0 0 1h1a1.5 1.5 0 0 1 0 3z"/><path d="m50 40.5a.5.5 0 0 1 -.5-.5v-1a.5.5 0 0 1 1 0v1a.5.5 0 0 1 -.5.5z"/><path d="m50 45.5a.5.5 0 0 1 -.5-.5v-1a.5.5 0 0 1 1 0v1a.5.5 0 0 1 -.5.5z"/></g><path d="m44 52h-5v-1.5a1.5 1.5 0 0 0 -3 0v1.5h-20v6a2 2 0 0 0 2 2h26a2 2 0 0 0 2-2v-4a2 2 0 0 0 -2-2z" fill="#e0c8a4"/><path d="m44 60.5h-26a2.5 2.5 0 0 1 -2.5-2.5v-6a.5.5 0 0 1 .5-.5h19.5v-1a2 2 0 0 1 4 0v1h4.5a2.5 2.5 0 0 1 2.5 2.5v4a2.5 2.5 0 0 1 -2.5 2.5zm-27.5-8v5.5a1.5 1.5 0 0 0 1.5 1.5h26a1.5 1.5 0 0 0 1.5-1.5v-4a1.5 1.5 0 0 0 -1.5-1.5h-5a.5.5 0 0 1 -.5-.5v-1.5a1 1 0 0 0 -2 0v1.5a.5.5 0 0 1 -.5.5z" fill="#212a41"/><path d="m18 58.5a.5.5 0 0 1 -.5-.5v-4a.5.5 0 0 1 1 0v4a.5.5 0 0 1 -.5.5z" fill="#fee6c2"/><path d="m10 58.5a.5.5 0 0 1 -.5-.5v-4a.5.5 0 0 1 1 0v4a.5.5 0 0 1 -.5.5z" fill="#e0c8a4"/><path d="m24 52.5a.5.5 0 0 1 -.5-.5v-6a.5.5 0 0 1 1 0v6a.5.5 0 0 1 -.5.5z" fill="#212a41"/></svg>